<svg width="24" height="16" viewBox="0 0 24 16" fill="none" xmlns="http://www.w3.org/2000/svg">
<path fill-rule="evenodd" clip-rule="evenodd" d="M16.8932 0.36997C16.3999 -0.123323 15.6001 -0.123323 15.1068 0.36997C14.6135 0.863264 14.6135 1.66305 15.1068 2.15635L19.6873 6.73684H1.89474C0.848303 6.73684 0 7.30238 0 8C0 8.69762 0.848303 9.26316 1.89474 9.26316H19.6873L15.1068 13.8437C14.6135 14.3369 14.6135 15.1367 15.1068 15.63C15.6001 16.1233 16.3999 16.1233 16.8932 15.63L23.63 8.89319C23.8736 8.64954 23.997 8.33113 23.9999 8.01181C24 8.00788 24 8.00394 24 8C24 7.99606 24 7.99212 23.9999 7.98819C23.997 7.66887 23.8736 7.35046 23.63 7.10681L16.8932 0.36997Z" fill="black"/>
</svg>
