<svg width="24" height="30" viewBox="0 0 24 30" fill="none" xmlns="http://www.w3.org/2000/svg">
<path d="M0 6H24V30H0V6Z" fill="url(#paint0_linear_622_639)"/>
<path d="M11.9998 8.00049C6.47975 8.00049 1.99976 12.4805 1.99976 18.0005C1.99976 23.5205 6.47975 28.0005 11.9998 28.0005C17.5198 28.0005 21.9998 23.5205 21.9998 18.0005C21.9998 12.4805 17.5198 8.00049 11.9998 8.00049ZM11.9998 26.0005C7.58976 26.0005 3.99976 22.4105 3.99976 18.0005C3.99976 13.5905 7.58976 10.0005 11.9998 10.0005C16.4098 10.0005 19.9998 13.5905 19.9998 18.0005C19.9998 22.4105 16.4098 26.0005 11.9998 26.0005ZM15.8798 14.2905L9.99975 20.1705L8.11975 18.2905C7.72975 17.9005 7.09975 17.9005 6.70975 18.2905C6.31976 18.6805 6.31976 19.3105 6.70975 19.7005L9.29975 22.2905C9.68975 22.6805 10.3198 22.6805 10.7098 22.2905L17.2998 15.7005C17.6898 15.3105 17.6898 14.6805 17.2998 14.2905C16.9098 13.9005 16.2698 13.9005 15.8798 14.2905Z" fill="black"/>
<defs>
<linearGradient id="paint0_linear_622_639" x1="12" y1="6" x2="12" y2="30" gradientUnits="userSpaceOnUse">
<stop stop-color="white" stop-opacity="0"/>
<stop offset="0.630896" stop-color="white" stop-opacity="0"/>
<stop offset="0.634879" stop-color="#00FFE0"/>
<stop offset="1" stop-color="#00FFE0"/>
</linearGradient>
</defs>
</svg>
