<svg width="51" height="32" viewBox="0 0 51 32" fill="none" xmlns="http://www.w3.org/2000/svg">
<path d="M1.5 14.5C0.671573 14.5 0 15.1716 0 16C0 16.8284 0.671573 17.5 1.5 17.5V14.5ZM50.5607 17.0607C51.1464 16.4749 51.1464 15.5251 50.5607 14.9393L41.0147 5.3934C40.4289 4.80761 39.4792 4.80761 38.8934 5.3934C38.3076 5.97919 38.3076 6.92893 38.8934 7.51472L47.3787 16L38.8934 24.4853C38.3076 25.0711 38.3076 26.0208 38.8934 26.6066C39.4792 27.1924 40.4289 27.1924 41.0147 26.6066L50.5607 17.0607ZM1.5 17.5H49.5V14.5H1.5V17.5Z" fill="black"/>
</svg>
